<svg xmlns="http://www.w3.org/2000/svg" viewBox="0 0 64 64">
  <rect width="64" height="64" rx="8" fill="#1f7edb"/>
  <path d="M17 22c0-5.1 4.1-8 10.2-8 3.6 0 6.5 1 8.6 2.9l-3.1 4.4c-1.5-1.3-3.3-2-5.6-2-2.4 0-3.8.9-3.8 2.4 0 1.6 1.7 2.1 5.2 2.9 5.1 1.1 8.5 3 8.5 8.2 0 5.4-4.1 8.7-10.7 8.7-4.4 0-8-1.4-10.4-3.9l3.3-4.3c1.9 1.8 4.2 2.8 7.1 2.8 2.6 0 4.1-.9 4.1-2.6 0-1.6-1.6-2.2-5-2.9C20.7 29.6 17 27.7 17 22Z" fill="white"/>
  <path d="M45.2 41.5 40.8 37c-2.2-2.5-3.4-5.8-3.4-9.7 0-8 4.6-13.3 11.7-13.3 7.2 0 11.8 5.3 11.8 13.3 0 6.4-3 11.1-7.9 12.7l4 4.1-4.8 3.2Zm3.9-7.3c3.1 0 5-2.5 5-6.9 0-4.4-1.9-6.9-5-6.9-3 0-4.9 2.5-4.9 6.9 0 4.4 1.9 6.9 4.9 6.9Z" fill="white" opacity=".92"/>
</svg>
