<svg width="760" height="230" viewBox="0 0 760 230" fill="none" xmlns="http://www.w3.org/2000/svg">
  <defs>
    <linearGradient id="wordmark-blue" x1="38" y1="36" x2="184" y2="186" gradientUnits="userSpaceOnUse">
      <stop stop-color="#2B96EE"/>
      <stop offset="1" stop-color="#0F5FB7"/>
    </linearGradient>
    <filter id="wordmark-shadow" x="12" y="12" width="192" height="192" filterUnits="userSpaceOnUse" color-interpolation-filters="sRGB">
      <feDropShadow dx="0" dy="8" stdDeviation="8" flood-color="#0F5FB7" flood-opacity="0.15"/>
    </filter>
  </defs>
  <g>
    <rect x="28" y="28" width="58" height="58" rx="18" fill="url(#wordmark-blue)"/>
    <rect x="118" y="28" width="58" height="58" rx="18" fill="url(#wordmark-blue)"/>
    <rect x="28" y="118" width="58" height="58" rx="18" fill="url(#wordmark-blue)"/>
    <rect x="118" y="118" width="58" height="58" rx="18" fill="url(#wordmark-blue)"/>
    <rect x="94" y="94" width="22" height="22" rx="6" fill="url(#wordmark-blue)" transform="rotate(45 105 105)"/>
    <path d="M41 38C49 32 58 30 68 30" stroke="white" stroke-opacity="0.22" stroke-width="4" stroke-linecap="round"/>
    <path d="M131 38C139 32 148 30 158 30" stroke="white" stroke-opacity="0.22" stroke-width="4" stroke-linecap="round"/>
  </g>
  <text x="220" y="96" font-family="Inter, Arial, sans-serif" font-size="82" font-weight="800" letter-spacing="0" fill="#C9D8EA" opacity="0.34">Square</text>
  <text x="220" y="92" font-family="Inter, Arial, sans-serif" font-size="82" font-weight="800" letter-spacing="0" fill="#182232">Square</text>
  <text x="225" y="145" font-family="'Noto Sans KR', Arial, sans-serif" font-size="29" font-weight="600" letter-spacing="0" fill="#4F6177">청주고등학교 커뮤니티</text>
  <path d="M225 172H628" stroke="#1F7EDB" stroke-opacity="0.22" stroke-width="8" stroke-linecap="round"/>
</svg>
