<?xml version="1.0" encoding="UTF-8"?>
<svg version="1.1" xmlns="http://www.w3.org/2000/svg" width="500" height="504">
<path d="M0 0 C165 0 330 0 500 0 C500 166.32 500 332.64 500 504 C335 504 170 504 0 504 C0 337.68 0 171.36 0 0 Z " fill="#1738F4" transform="translate(0,0)"/>
<path d="M0 0 C7.00330332 4.82536728 11.2409623 10.67279564 13 19 C13.88733317 32.20718925 14.44596298 45.71167327 9 58 C8.54625 59.216875 8.0925 60.43375 7.625 61.6875 C2.8996392 71.31996624 -1.92046724 78.50989786 -11.375 83.9375 C-18.11810481 85.91392727 -25.5639238 85.97966491 -32 83 C-39.41625902 76.45218767 -42.66870008 69.73585419 -44 60 C-45.0186532 40.13626257 -42.65752416 21.57851573 -29.26953125 5.984375 C-21.45281975 -2.22921147 -10.68049347 -5.34024673 0 0 Z " fill="#F8F9FE" transform="translate(136,169)"/>
<path d="M0 0 C7.26 0 14.52 0 22 0 C22.495 4.455 22.495 4.455 23 9 C23.495 9.99 23.495 9.99 24 11 C24.23434067 14.39236018 24.39252811 17.77808085 24.51757812 21.17578125 C24.78818407 26.92488115 25.74676411 32.38644074 27 38 C27.11593506 37.09757568 27.23187012 36.19515137 27.35131836 35.26538086 C27.78517214 31.89016758 28.21946698 28.51501165 28.65405273 25.13989258 C28.84140175 23.68418586 29.02857927 22.22845707 29.21557617 20.77270508 C29.48570464 18.67002507 29.75646716 16.56742749 30.02734375 14.46484375 C30.18968506 13.202771 30.35202637 11.94069824 30.51928711 10.64038086 C30.98808538 7.09022798 31.49357415 3.54498098 32 0 C37.94 0 43.88 0 50 0 C49.71125 2.43375 49.4225 4.8675 49.125 7.375 C48.99569092 8.49140869 48.99569092 8.49140869 48.86376953 9.63037109 C48.41420773 13.31525715 47.82886908 16.92058989 47.05078125 20.55078125 C45.74782329 26.86903548 45.04830017 33.25877471 44.31069946 39.66204834 C43.88894178 43.31624447 43.45248578 46.9686769 43.015625 50.62109375 C42.92964554 51.34101501 42.84366608 52.06093628 42.75508118 52.80267334 C42.00972311 59.00323829 41.19353514 65.19217034 40.3125 71.375 C40.13376343 72.64694214 40.13376343 72.64694214 39.95141602 73.94458008 C39.4965061 77.07771056 39.00343173 79.98970481 38 83 C30.74 83 23.48 83 16 83 C14.10339107 71.46229569 12.47699953 60.69971414 13 49 C12.34 49 11.68 49 11 49 C10.95101562 49.94617188 10.90203125 50.89234375 10.8515625 51.8671875 C10.42565968 59.57977483 9.8340631 67.25762032 9 74.9375 C8.9170166 75.72431152 8.8340332 76.51112305 8.74853516 77.32177734 C8.12248452 82.87751548 8.12248452 82.87751548 7 84 C5.65732587 84.08631874 4.31025678 84.10706473 2.96484375 84.09765625 C2.15595703 84.09443359 1.34707031 84.09121094 0.51367188 84.08789062 C-0.33646484 84.07951172 -1.18660156 84.07113281 -2.0625 84.0625 C-2.91650391 84.05798828 -3.77050781 84.05347656 -4.65039062 84.04882812 C-6.76695663 84.03700373 -8.88348685 84.01906769 -11 84 C-11.09765625 77.84765625 -11.09765625 77.84765625 -11 76 C-10.505 75.505 -10.505 75.505 -10 75 C-9.74650053 73.47758736 -9.55243359 71.94521114 -9.38330078 70.41113281 C-9.27293488 69.43210999 -9.16256897 68.45308716 -9.04885864 67.44439697 C-8.93218842 66.37477722 -8.81551819 65.30515747 -8.6953125 64.203125 C-8.43896625 61.94138764 -8.18245012 59.67966952 -7.92578125 57.41796875 C-7.52605807 53.85072002 -7.12866873 50.28323901 -6.73486328 46.71533203 C-4.0604909 22.59202105 -4.0604909 22.59202105 -1.61352539 13.53735352 C-0.53397181 9.07264984 -0.30496796 4.57451945 0 0 Z " fill="#F7F8FE" transform="translate(240,169)"/>
<path d="M0 0 C7.26 0 14.52 0 22 0 C22.27714844 2.08183594 22.55429688 4.16367188 22.83984375 6.30859375 C23.11094254 8.31750527 23.38207065 10.32641296 23.65405273 12.33520508 C23.84274864 13.73474037 24.02992769 15.13448103 24.21557617 16.53442383 C24.48220272 18.54301046 24.75468276 20.55081738 25.02734375 22.55859375 C25.18968506 23.76829834 25.35202637 24.97800293 25.51928711 26.22436523 C25.70824127 28.90026363 25.70824127 28.90026363 27 30 C28.83569243 20.04039212 29.93239032 10.06603414 31 0 C36.94 0 42.88 0 49 0 C49.43242276 7.2430813 48.6135127 13.74565552 47.1875 20.8125 C45.17965371 30.77294029 43.72079554 40.73159159 42.41943359 50.80566406 C41.67157142 56.50125697 40.87770812 62.19058102 40.08886719 67.88061523 C39.64781153 71.06346298 39.2088152 74.24659483 38.76953125 77.4296875 C38.51304535 79.28646172 38.25654494 81.14323394 38 83 C34.52085059 83.02887814 31.04173169 83.04675687 27.5625 83.0625 C26.07266602 83.07506836 26.07266602 83.07506836 24.55273438 83.08789062 C23.13637695 83.09272461 23.13637695 83.09272461 21.69140625 83.09765625 C20.81685791 83.10289307 19.94230957 83.10812988 19.04125977 83.11352539 C17 83 17 83 16 82 C15.71284009 80.14868308 15.48440611 78.28818903 15.28125 76.42578125 C15.15363281 75.28302734 15.02601563 74.14027344 14.89453125 72.96289062 C14.76433594 71.75826172 14.63414062 70.55363281 14.5 69.3125 C14.24096709 66.95427468 13.98059361 64.59619614 13.71875 62.23828125 C13.60466797 61.18680908 13.49058594 60.13533691 13.37304688 59.05200195 C13.0019356 56.01583572 12.52531726 53.01296504 12 50 C11.67 50 11.34 50 11 50 C9.68 60.89 8.36 71.78 7 83 C1.39 83 -4.22 83 -10 83 C-9.4338457 71.94408796 -8.3839632 61.07493215 -6.89819336 50.10693359 C-6.56010587 47.60729914 -6.23161423 45.10653405 -5.90429688 42.60546875 C-4.94428891 35.35876158 -3.92180946 28.18335846 -2.39086914 21.03125 C-1.7941381 17.93018674 -1.60514285 14.83704541 -1.4375 11.6875 C-1.21389505 7.61241389 -0.80599948 4.02999738 0 0 Z " fill="#FAFBFE" transform="translate(171,169)"/>
<path d="M0 0 C11.55 0 23.1 0 35 0 C33.875 16.875 33.875 16.875 33 23 C27.72 23 22.44 23 17 23 C16.67 25.64 16.34 28.28 16 31 C20.29 31 24.58 31 29 31 C28.43547326 38.01626089 27.81565908 45.00863645 27 52 C22.38 52 17.76 52 13 52 C12.67 54.64 12.34 57.28 12 60 C17.61 60 23.22 60 29 60 C28.44017421 67.9308653 27.44009945 75.079453 26 83 C13.79 83 1.58 83 -11 83 C-11 72.89698231 -11 72.89698231 -10.1953125 69.44921875 C-10.02499512 68.67876221 -9.85467773 67.90830566 -9.67919922 67.11450195 C-9.49631348 66.31359131 -9.31342773 65.51268066 -9.125 64.6875 C-7.10895065 55.27838777 -6.04646345 45.94677816 -5.21337891 36.37109375 C-4.11140095 24.12577351 -2.14073686 12.13084221 0 0 Z " fill="#F6F7FE" transform="translate(313,169)"/>
<path d="M0 0 C1.31871094 -0.01417969 2.63742187 -0.02835938 3.99609375 -0.04296875 C7.2175867 0.16521097 8.90170999 0.46581234 11.5625 2.1875 C11.5625 2.8475 11.5625 3.5075 11.5625 4.1875 C12.34625 4.39375 13.13 4.6 13.9375 4.8125 C16.5625 6.1875 16.5625 6.1875 18.05859375 8.7890625 C18.61909353 12.56917727 18.42347891 12.99122968 16.38671875 15.984375 C15.36180796 17.31821751 14.31526105 18.63565636 13.25 19.9375 C12.21159906 21.26512427 11.17380963 22.59322712 10.13671875 23.921875 C9.66838623 24.50163086 9.20005371 25.08138672 8.7175293 25.67871094 C7.47759029 27.20016505 7.47759029 27.20016505 6.5625 29.1875 C2.6875 27.3125 2.6875 27.3125 1.5625 26.1875 C-3.23759926 26.32042401 -3.23759926 26.32042401 -7.05859375 28.86328125 C-11.65122623 36.60440398 -12.43407554 47.38657312 -11.4375 56.1875 C-10.49314759 58.94453283 -10.49314759 58.94453283 -9.4375 61.1875 C-5.09486138 61.35452456 -2.22789366 61.31749997 1.5625 59.1875 C2.71522364 61.58022922 3.85978845 63.97631621 5 66.375 C5.32548828 67.04853516 5.65097656 67.72207031 5.98632812 68.41601562 C7.67929811 71.99394187 9.01612121 75.22432994 9.5625 79.1875 C1.53849548 85.663727 -4.13256018 87.55407889 -14.4375 87.1875 C-14.4375 86.5275 -14.4375 85.8675 -14.4375 85.1875 C-15.63375 85.166875 -16.83 85.14625 -18.0625 85.125 C-21.82806978 84.68278006 -23.46205143 83.60446462 -25.9375 80.75 C-28.4375 77.56515957 -28.4375 77.56515957 -28.4375 75.1875 C-29.0975 75.1875 -29.7575 75.1875 -30.4375 75.1875 C-33.9968903 67.73914622 -33.88615594 60.7803495 -33.8125 52.625 C-33.82410156 51.33658203 -33.83570313 50.04816406 -33.84765625 48.72070312 C-33.82694634 42.02795017 -33.573833 37.10569101 -30.4375 31.1875 C-29.80708381 29.0492312 -29.20218625 26.90324734 -28.625 24.75 C-25.56218397 14.56789022 -18.93918142 7.45189684 -10.4375 1.1875 C-6.90252138 0.00917379 -3.67856929 0.00352691 0 0 Z " fill="#F7F8FE" transform="translate(395.4375,166.8125)"/>
<path d="M0 0 C1.23492187 -0.00257813 2.46984375 -0.00515625 3.7421875 -0.0078125 C6.43274489 0.09782139 8.58129184 0.31970546 11.125 1.125 C11.125 1.785 11.125 2.445 11.125 3.125 C11.8675 3.3725 12.61 3.62 13.375 3.875 C16.39990317 5.24995599 18.10780015 6.48712327 20.125 9.125 C19.72360013 12.11649336 18.64674224 14.10320505 16.875 16.5078125 C16.20984375 17.42240234 16.20984375 17.42240234 15.53125 18.35546875 C15.0671875 18.98066406 14.603125 19.60585937 14.125 20.25 C10.86871459 24.5264762 10.86871459 24.5264762 8.125 29.125 C4.25 27.25 4.25 27.25 3.125 26.125 C0.25193772 25.62404977 0.25193772 25.62404977 -2.875 26.125 C-7.66261145 30.09187806 -8.88321763 36.22498082 -9.875 42.125 C-10.55601622 51.88135486 -10.55601622 51.88135486 -7.875 61.125 C-3.53236138 61.29202456 -0.66539366 61.25499997 3.125 59.125 C4.49500201 62.05536877 5.84318552 64.99526914 7.1875 67.9375 C7.57744141 68.77087891 7.96738281 69.60425781 8.36914062 70.46289062 C8.73330078 71.26533203 9.09746094 72.06777344 9.47265625 72.89453125 C9.98324585 74.00211792 9.98324585 74.00211792 10.50415039 75.13208008 C11.125 77.125 11.125 77.125 10.125 80.125 C7.9453125 81.6953125 7.9453125 81.6953125 5.25 83.25 C4.36570313 83.76820313 3.48140625 84.28640625 2.5703125 84.8203125 C-3.59424366 88.10938879 -9.96233091 87.65023541 -16.6875 86.4375 C-23.65185556 83.56982418 -26.8402155 77.66413466 -29.7890625 71.0859375 C-32.86638765 62.71676351 -32.21406769 53.89461471 -31.875 45.125 C-31.83246094 43.96613281 -31.78992187 42.80726563 -31.74609375 41.61328125 C-31.3709396 35.37933676 -30.20320697 29.9235532 -27.875 24.125 C-27.215 24.125 -26.555 24.125 -25.875 24.125 C-25.854375 23.155625 -25.83375 22.18625 -25.8125 21.1875 C-24.5879013 12.88371428 -17.13637228 7.15410985 -10.79296875 2.4375 C-7.06641567 -0.1126463 -4.51446165 -0.00938558 0 0 Z " fill="#F8F9FE" transform="translate(65.875,166.875)"/>
<path d="M0 0 C14.52 0 29.04 0 44 0 C42.875 14.625 42.875 14.625 41 22 C37.04 22 33.08 22 29 22 C28.896875 23.423125 28.79375 24.84625 28.6875 26.3125 C28.23507774 31.35923846 27.47175404 36.32031397 26.625 41.3125 C25.58542391 47.46525033 24.79964839 53.61648781 24.20703125 59.828125 C24.14219543 60.5061467 24.07735962 61.1841684 24.01055908 61.88273621 C23.68844657 65.29408348 23.3817788 68.7062632 23.09033203 72.12036133 C22.9767334 73.37099365 22.86313477 74.62162598 22.74609375 75.91015625 C22.64997803 77.03558838 22.5538623 78.16102051 22.45483398 79.32055664 C22 82 22 82 20 84 C18.02880859 84.22705078 18.02880859 84.22705078 15.6484375 84.1953125 C14.37226563 84.18564453 14.37226563 84.18564453 13.0703125 84.17578125 C11.73613281 84.15064453 11.73613281 84.15064453 10.375 84.125 C9.4778125 84.11597656 8.580625 84.10695313 7.65625 84.09765625 C5.43723414 84.0740497 3.21874923 84.0411231 1 84 C0.74707272 76.17611611 1.72275667 68.73065386 2.875 61 C3.04902344 59.78054687 3.22304688 58.56109375 3.40234375 57.3046875 C4.14606587 52.20330465 4.91007793 47.14847283 6.09375 42.12890625 C7.05448494 38.04081343 7.39819862 34.13332551 7.625 29.9375 C7.69976562 28.62652344 7.77453125 27.31554687 7.8515625 25.96484375 C7.90054687 24.98644531 7.94953125 24.00804687 8 23 C4.7 23 1.4 23 -2 23 C-2.05561623 21.22954988 -2.09349478 19.45854326 -2.125 17.6875 C-2.14820313 16.70136719 -2.17140625 15.71523437 -2.1953125 14.69921875 C-1.93410912 9.75202668 -0.88621328 4.87417301 0 0 Z " fill="#F3F5FE" transform="translate(428,169)"/>
<path d="M0 0 C0.89267578 0.0515625 1.78535156 0.103125 2.70507812 0.15625 C3.63384766 0.22070312 4.56261719 0.28515625 5.51953125 0.3515625 C6.93008789 0.43664062 6.93008789 0.43664062 8.36914062 0.5234375 C10.69088034 0.66486327 13.01153055 0.8162658 15.33203125 0.9765625 C15.50661866 5.36887473 15.63280194 9.75928941 15.71655273 14.15405273 C15.75150242 15.64497094 15.79908311 17.1356537 15.86010742 18.62573242 C16.41669483 32.57783529 16.41669483 32.57783529 11.9296875 38.44921875 C9.40696466 41.18154273 7.77393348 42.85221936 3.9765625 43.1796875 C-2.08084138 43.27994798 -6.30426163 42.8372063 -11.66796875 39.9765625 C-11.11067962 36.63282775 -10.31622986 33.94343251 -8.66796875 30.9765625 C-8.15234375 31.1415625 -7.63671875 31.3065625 -7.10546875 31.4765625 C-3.86520361 32.14123227 -0.96523545 32.22080448 2.33203125 31.9765625 C2.99203125 30.9865625 3.65203125 29.9965625 4.33203125 28.9765625 C3.34203125 29.3065625 2.35203125 29.6365625 1.33203125 29.9765625 C-2.04296875 30.4140625 -2.04296875 30.4140625 -5.66796875 29.9765625 C-9.13199097 26.77359703 -10.93218651 24.60616755 -11.26171875 19.84765625 C-11.25646298 18.36947065 -11.22473085 16.89116722 -11.16796875 15.4140625 C-11.17054688 14.67220703 -11.173125 13.93035156 -11.17578125 13.16601562 C-11.09537494 8.65120109 -10.55585154 5.6340933 -7.66796875 1.9765625 C-4.39518736 -0.20529176 -3.73284395 -0.23776076 0 0 Z " fill="#F0F1F8" transform="translate(349.66796875,318.0234375)"/>
<path d="M0 0 C0.85078125 0.04833984 1.7015625 0.09667969 2.578125 0.14648438 C3.46757812 0.20255859 4.35703125 0.25863281 5.2734375 0.31640625 C6.170625 0.36861328 7.0678125 0.42082031 7.9921875 0.47460938 C10.21127762 0.60444975 12.42993621 0.73941964 14.6484375 0.87890625 C14.72309144 5.02315713 14.77727471 9.16704249 14.81323242 13.31176758 C14.82823627 14.71906359 14.84864613 16.12631349 14.87475586 17.53344727 C14.91151415 19.56668532 14.92824734 21.59930057 14.94140625 23.6328125 C14.9571167 24.85299072 14.97282715 26.07316895 14.98901367 27.33032227 C14.46927231 32.74569196 12.72852507 36.54300846 9.2734375 40.81640625 C5.26930686 43.87245558 0.59912081 43.39316475 -4.23046875 43.34765625 C-7.60373101 42.84103363 -9.57912523 41.82012862 -12.3515625 39.87890625 C-11.99796306 37.26227038 -11.70264228 35.35592893 -10.12109375 33.20703125 C-7.18811679 31.00567989 -4.23380842 31.86657289 -0.7265625 32.1640625 C1.8281274 32.12089588 1.8281274 32.12089588 3.4609375 29.875 C3.8528125 29.21628906 4.2446875 28.55757813 4.6484375 27.87890625 C4.1121875 28.20890625 3.5759375 28.53890625 3.0234375 28.87890625 C0.00568508 30.14953885 -2.10148991 30.21745548 -5.3515625 29.87890625 C-9.0696798 27.91656656 -10.08900513 25.80089297 -11.3515625 21.87890625 C-12.62742422 9.64406382 -12.62742422 9.64406382 -10.30078125 4.6015625 C-7.13622608 0.78355936 -4.76526734 -0.28591604 0 0 Z " fill="#F3F4FA" transform="translate(381.3515625,318.12109375)"/>
<path d="M0 0 C3.3 0 6.6 0 10 0 C11.49821059 3.37097383 12 5.20442119 12 9 C12.66 9 13.32 9 14 9 C14.144375 7.700625 14.28875 6.40125 14.4375 5.0625 C14.875 1.125 14.875 1.125 16 0 C17.68608966 -0.07205511 19.37500659 -0.08386068 21.0625 -0.0625 C21.98160156 -0.05347656 22.90070313 -0.04445313 23.84765625 -0.03515625 C24.55792969 -0.02355469 25.26820312 -0.01195312 26 0 C26.66 2.64 27.32 5.28 28 8 C28.99 5.36 29.98 2.72 31 0 C34.3 0 37.6 0 41 0 C40.29791463 6.33654266 38.65627796 12.30812246 36.9375 18.4375 C36.65583984 19.45521484 36.37417969 20.47292969 36.08398438 21.52148438 C35.39318276 24.01539529 34.69712037 26.50784797 34 29 C30.37 29 26.74 29 23 29 C22.01 26.03 21.02 23.06 20 20 C19.01 22.97 18.02 25.94 17 29 C13.7 29 10.4 29 7 29 C0 6.96954315 0 6.96954315 0 0 Z " fill="#F4F5FB" transform="translate(67,319)"/>
<path d="M0 0 C3.63 0 7.26 0 11 0 C11.33 3.96 11.66 7.92 12 12 C13.051875 11.7525 14.10375 11.505 15.1875 11.25 C19 11 19 11 21.875 12.8125 C25.09971925 16.13206394 25.12146558 17.92153894 25.09765625 22.4453125 C25.09443359 23.52167969 25.09121094 24.59804688 25.08789062 25.70703125 C25.07951172 26.83496094 25.07113281 27.96289062 25.0625 29.125 C25.05798828 30.26066406 25.05347656 31.39632813 25.04882812 32.56640625 C25.03701628 35.37762647 25.01908041 38.18881972 25 41 C21.37 41 17.74 41 14 41 C14 34.73 14 28.46 14 22 C13.34 22.33 12.68 22.66 12 23 C11.67 28.94 11.34 34.88 11 41 C7.37 41 3.74 41 0 41 C0 27.47 0 13.94 0 0 Z " fill="#F0F2FA" transform="translate(147,307)"/>
<path d="M0 0 C3.3 0 6.6 0 10 0 C10 4.29 10 8.58 10 13 C10.99 12.34 11.98 11.68 13 11 C17.15869464 11.29704962 19.50407222 11.66938148 23 14 C24.52372385 19.45057787 24.11196605 25.25870133 24.0625 30.875 C24.05798828 31.84953125 24.05347656 32.8240625 24.04882812 33.828125 C24.03710924 36.21877668 24.01917596 38.6093965 24 41 C20.7 41 17.4 41 14 41 C13.67 34.73 13.34 28.46 13 22 C12.34 22.33 11.68 22.66 11 23 C10.67 28.94 10.34 34.88 10 41 C6.7 41 3.4 41 0 41 C0 27.47 0 13.94 0 0 Z " fill="#F5F6FB" transform="translate(221,307)"/>
<path d="M0 0 C0.61875 0.639375 1.2375 1.27875 1.875 1.9375 C1.26045304 5.93205527 -0.83146737 8.68216336 -3.125 11.9375 C-6.095 11.6075 -9.065 11.2775 -12.125 10.9375 C-14.41299005 15.5134801 -14.09970328 17.06398361 -13.125 21.9375 C-12.795 22.9275 -12.465 23.9175 -12.125 24.9375 C-9.155 24.2775 -6.185 23.6175 -3.125 22.9375 C-0.125 27.6875 -0.125 27.6875 -0.125 29.9375 C0.535 29.9375 1.195 29.9375 1.875 29.9375 C1.875 31.2575 1.875 32.5775 1.875 33.9375 C-3.21163675 36.89699775 -7.08059774 38.72103363 -13.125 37.9375 C-17.79713454 36.16208887 -20.92052308 33.76506965 -24.125 29.9375 C-26.94903996 22.97087877 -27.70244892 14.16388826 -25 7 C-22.56369314 3.0206988 -19.79159515 -1.10540257 -15.2421875 -2.73828125 C-9.77587555 -3.5753733 -4.61896487 -3.04851681 0 0 Z " fill="#F5F6FB" transform="translate(215.125,311.0625)"/>
<path d="M0 0 C3.85578452 2.55979014 5.59389102 4.55044195 6.99609375 9.0546875 C7.65070499 14.21545981 7.77972741 19.33777992 5.37109375 24.0546875 C2.66993107 27.46668247 1.16121234 28.79729321 -3.00390625 30.0546875 C-6.24309337 30.34545834 -8.9325621 30.15708067 -12.00390625 29.0546875 C-15.65954656 26.00070466 -18.76441104 22.3093638 -19.27734375 17.48046875 C-19.58538133 8.03793202 -19.58538133 8.03793202 -16.75390625 3.9296875 C-12.06018607 -0.97738359 -6.54505252 -3.08752965 0 0 Z " fill="#F2F4FC" transform="translate(297.00390625,318.9453125)"/>
<path d="M0 0 C4.48495083 2.28478627 6.79142926 4.51939384 9 9 C9.80983332 14.82934071 9.7949869 20.22656769 7.375 25.625 C4.22157461 28.77842539 1.59513653 30.8317495 -2.98828125 31.12890625 C-6.98667747 30.88041835 -8.71064885 30.23902921 -11.875 27.625 C-16.35770533 22.08754048 -16.53343926 18.48357598 -16.4609375 11.47265625 C-15.88553182 7.13760834 -14.6077204 5.10933575 -11.5078125 2.13671875 C-7.95232362 -0.54371458 -4.29348169 -0.57566235 0 0 Z " fill="#F6F7FC" transform="translate(417,318)"/>
<path d="M0 0 C3.41720865 2.41168519 5.41772592 6.19134028 7 10 C7.1953125 12.578125 7.1953125 12.578125 7.125 15.25 C7.10695313 16.14203125 7.08890625 17.0340625 7.0703125 17.953125 C7.04710937 18.62859375 7.02390625 19.3040625 7 20 C5.02 20 3.04 20 1 20 C1 20.66 1 21.32 1 22 C2.65 22.33 4.3 22.66 6 23 C5.9375 24.75 5.9375 24.75 5 27 C0.86549302 30.25482464 -1.90933183 31.34358588 -7.1875 31.0625 C-10.85397081 30.52675997 -11.81294835 30.17369081 -14.625 27.5625 C-16 25 -16 25 -16 23 C-16.66 23 -17.32 23 -18 23 C-19.03336645 8.13100501 -19.03336645 8.13100501 -15.125 3.625 C-10.66116273 -0.5800641 -5.96512261 -1.00514664 0 0 Z " fill="#F1F3FB" transform="translate(268,318)"/>
<path d="M0 0 C3.65793083 0.49241377 4.96900584 1.46340185 7.22900391 4.34057617 C9.41515153 8.83049055 8.74911005 13.93767133 8.5625 18.8125 C8.53994141 19.93011719 8.51738281 21.04773438 8.49414062 22.19921875 C8.43543378 24.9466989 8.35336846 27.69139761 8.25 30.4375 C4.95 30.4375 1.65 30.4375 -1.75 30.4375 C-1.75 24.1675 -1.75 17.8975 -1.75 11.4375 C-2.74 11.7675 -3.73 12.0975 -4.75 12.4375 C-5.08 18.3775 -5.41 24.3175 -5.75 30.4375 C-9.05 30.4375 -12.35 30.4375 -15.75 30.4375 C-15.75 20.8675 -15.75 11.2975 -15.75 1.4375 C-11.79 1.4375 -7.83 1.4375 -3.75 1.4375 C-2.75 0.4375 -2.75 0.4375 0 0 Z " fill="#F6F7FC" transform="translate(324.75,317.5625)"/>
<path d="M0 0 C3.3 0 6.6 0 10 0 C10 1.98 10 3.96 10 6 C11.65 6 13.3 6 15 6 C15 9.3 15 12.6 15 16 C13.35 16 11.7 16 10 16 C10 18.97 10 21.94 10 25 C11.32 25 12.64 25 14 25 C14 28.63 14 32.26 14 36 C10.04 36 6.08 36 2 36 C-0.18648367 31.62703266 -0.23362071 28.4791784 -0.125 23.75 C-0.11597656 23.00492187 -0.10695312 22.25984375 -0.09765625 21.4921875 C-0.07418358 19.66131941 -0.03831525 17.83061762 0 16 C-1.32 16 -2.64 16 -4 16 C-4 12.7 -4 9.4 -4 6 C-2.68 6 -1.36 6 0 6 C0 4.02 0 2.04 0 0 Z " fill="#ECEEF7" transform="translate(129,313)"/>
<path d="M0 0 C2.95070885 0.60527361 3.69322475 1.05801465 5.4375 3.5 C6.84852244 16.15368511 4.48216207 26.44888117 -1.5625 37.5 C-3.5425 37.5 -5.5225 37.5 -7.5625 37.5 C-10.04805169 33.70730559 -9.90769162 29.81625402 -9.875 25.4375 C-9.87081055 24.68178711 -9.86662109 23.92607422 -9.86230469 23.14746094 C-9.71066098 15.57495516 -8.56704922 8.90773368 -4.6875 2.3125 C-2.5625 0.5 -2.5625 0.5 0 0 Z " fill="#2243F5" transform="translate(122.5625,191.5)"/>
<path d="M0 0 C0.66 0.33 1.32 0.66 2 1 C2 11.56 2 22.12 2 33 C-8.125 37.5 -8.125 37.5 -13.5625 37.25 C-15.11130859 37.19585937 -15.11130859 37.19585937 -16.69140625 37.140625 C-17.45324219 37.09421875 -18.21507812 37.0478125 -19 37 C-19.495 35.515 -19.495 35.515 -20 34 C-19.319375 34.165 -18.63875 34.33 -17.9375 34.5 C-11.60926272 35.57714677 -7.62100319 35.1373041 -2 32 C-1.34 32 -0.68 32 0 32 C0 30.68 0 29.36 0 28 C-0.66 28 -1.32 28 -2 28 C-2.99 26.02 -3.98 24.04 -5 22 C-7.97 22.33 -10.94 22.66 -14 23 C-16.47120388 19.83685903 -17.24126231 17.73567514 -16.8125 13.8125 C-16 10 -16 10 -14 8 C-9.94738713 7.65509678 -8.45245824 7.69836118 -5 10 C-4.731875 9.278125 -4.46375 8.55625 -4.1875 7.8125 C-3.01017502 5.02409874 -1.60854116 2.55904276 0 0 Z " fill="#2341E8" transform="translate(217,313)"/>
<path d="M0 0 C3.3 0 6.6 0 10 0 C10 9.57 10 19.14 10 29 C6.7 29 3.4 29 0 29 C0 19.43 0 9.86 0 0 Z " fill="#F7F8FB" transform="translate(112,319)"/>
<path d="M0 0 C0.33 0 0.66 0 1 0 C1.84011285 6.51087459 2.13536317 12.94249052 2.1875 19.5 C2.20039063 20.30163574 2.21328125 21.10327148 2.2265625 21.92919922 C2.2300174 23.95420526 2.12319651 25.97874197 2 28 C0 30 0 30 -2.1640625 30.1953125 C-2.97617188 30.17210937 -3.78828125 30.14890625 -4.625 30.125 C-5.44226563 30.10695313 -6.25953125 30.08890625 -7.1015625 30.0703125 C-7.72804687 30.04710937 -8.35453125 30.02390625 -9 30 C-9 29.67 -9 29.34 -9 29 C-6.36 29 -3.72 29 -1 29 C-1 25.37 -1 21.74 -1 18 C-2.32 18 -3.64 18 -5 18 C-5 15.03 -5 12.06 -5 9 C-3.35 9 -1.7 9 0 9 C0 6.03 0 3.06 0 0 Z " fill="#233FD4" transform="translate(144,320)"/>
<path d="M0 0 C3 0.25 3 0.25 5 2.25 C5.35173852 6.04877599 5.52701444 8.39360153 3.5 11.6875 C3.005 12.203125 2.51 12.71875 2 13.25 C-2.75 12.5 -2.75 12.5 -5 10.25 C-5.265625 8.375 -5.265625 8.375 -5.25 6.25 C-5.25515625 5.54875 -5.2603125 4.8475 -5.265625 4.125 C-4.77431879 0.65695617 -3.28862917 0.27405243 0 0 Z " fill="#EDEFF9" transform="translate(117,304.75)"/>
<path d="M0 0 C5.94 0 11.88 0 18 0 C18.14285714 11.71428571 18.14285714 11.71428571 17 17 C16.67 17 16.34 17 16 17 C16 12.05 16 7.1 16 2 C11.38 2 6.76 2 2 2 C1.87882813 3.19238281 1.75765625 4.38476562 1.6328125 5.61328125 C1.46397327 7.17973408 1.29467868 8.74613788 1.125 10.3125 C1.04636719 11.09818359 0.96773437 11.88386719 0.88671875 12.69335938 C0.80292969 13.45068359 0.71914062 14.20800781 0.6328125 14.98828125 C0.55949707 15.68477783 0.48618164 16.38127441 0.41064453 17.09887695 C0 19 0 19 -2 22 C-1.34 14.74 -0.68 7.48 0 0 Z " fill="#BBC6FB" transform="translate(202,169)"/>
<path d="M0 0 C0.33 0 0.66 0 1 0 C1.09985537 4.10751239 1.17192603 8.21454209 1.21972656 12.32299805 C1.23967995 13.71667814 1.26685319 15.1102763 1.30175781 16.50366211 C1.53564257 26.08949773 1.26239629 34.00690721 -5.1875 41.5625 C-9.08514473 43.55462953 -12.69577859 43.69318922 -17 43 C-17.99 42.34 -18.98 41.68 -20 41 C-19.27554687 40.98582031 -18.55109375 40.97164063 -17.8046875 40.95703125 C-11.19502667 40.72018094 -11.19502667 40.72018094 -5.4375 37.8125 C-1.28454127 33.02062454 -0.75055056 28.27073767 -0.5859375 22.0703125 C-0.54726563 20.78125 -0.50859375 19.4921875 -0.46875 18.1640625 C-0.43730242 16.81771293 -0.40605489 15.47135868 -0.375 14.125 C-0.33676959 12.75518486 -0.29771499 11.38539245 -0.2578125 10.015625 C-0.16377285 6.67721737 -0.07811943 3.33881186 0 0 Z " fill="#16329A" transform="translate(396,320)"/>
<path d="M0 0 C0.33 0 0.66 0 1 0 C1.19392201 5.52677733 0.7479503 9.75614911 -1 15 C-1.66 15 -2.32 15 -3 15 C-3.66 18.96 -4.32 22.92 -5 27 C-8.63 27 -12.26 27 -16 27 C-16 26.34 -16 25.68 -16 25 C-12.7 25 -9.4 25 -6 25 C-5.88785156 23.865625 -5.77570313 22.73125 -5.66015625 21.5625 C-5.07422566 16.87505526 -3.83062151 12.50325553 -2.4375 8 C-2.20353516 7.22527344 -1.96957031 6.45054687 -1.72851562 5.65234375 C-1.15809962 3.7664786 -0.57987197 1.8829791 0 0 Z " fill="#5E699F" transform="translate(107,323)"/>
<path d="M0 0 C0.99 0 1.98 0 3 0 C2.67 0.66 2.34 1.32 2 2 C1.86152592 3.36207818 1.77495667 4.7297115 1.71875 6.09765625 C1.68136719 6.89880859 1.64398438 7.69996094 1.60546875 8.52539062 C1.53499415 10.22069639 1.46468239 11.91600894 1.39453125 13.61132812 C1.10065115 19.89934885 1.10065115 19.89934885 0 21 C-1.68608966 21.07205511 -3.37500659 21.08386068 -5.0625 21.0625 C-5.98160156 21.05347656 -6.90070313 21.04445313 -7.84765625 21.03515625 C-8.55792969 21.02355469 -9.26820313 21.01195312 -10 21 C-10.33 20.34 -10.66 19.68 -11 19 C-7.7 19 -4.4 19 -1 19 C-1.01160156 17.71222656 -1.02320313 16.42445313 -1.03515625 15.09765625 C-1.0445327 13.41927228 -1.05363305 11.74088674 -1.0625 10.0625 C-1.07087891 9.21236328 -1.07925781 8.36222656 -1.08789062 7.48632812 C-1.09111328 6.67744141 -1.09433594 5.86855469 -1.09765625 5.03515625 C-1.10289307 4.2862915 -1.10812988 3.53742676 -1.11352539 2.76586914 C-1 1 -1 1 0 0 Z " fill="#5B69B3" transform="translate(320,329)"/>
<path d="M0 0 C4.31088088 6.46632132 4.29239362 15.39776578 4 23 C3.67 23 3.34 23 3 23 C2.34 20.03 1.68 17.06 1 14 C0.34 14 -0.32 14 -1 14 C-1.33 14.99 -1.66 15.98 -2 17 C-1.85899143 14.72886197 -1.71203245 12.45809275 -1.5625 10.1875 C-1.48128906 8.92292969 -1.40007812 7.65835938 -1.31640625 6.35546875 C-1 3 -1 3 0 0 Z " fill="#6B83F7" transform="translate(182,216)"/>
<path d="M0 0 C3.53571429 0.53571429 3.53571429 0.53571429 5 2 C4.71269945 4.33944736 4.38063221 6.6739143 4 9 C2.02 9 0.04 9 -2 9 C-2.125 5.625 -2.125 5.625 -2 2 C-1.34 1.34 -0.68 0.68 0 0 Z " fill="#6072D0" transform="translate(381,329)"/>
<path d="M0 0 C0.33 0.66 0.66 1.32 1 2 C-0.3125 4.625 -0.3125 4.625 -2 7 C-2.66 7 -3.32 7 -4 7 C-4 7.66 -4 8.32 -4 9 C-6.0622048 9.054348 -8.12482816 9.09294961 -10.1875 9.125 C-11.33605469 9.14820313 -12.48460937 9.17140625 -13.66796875 9.1953125 C-16.96222999 9.00221395 -19.12012405 8.58998636 -22 7 C-22.33 6.01 -22.66 5.02 -23 4 C-21.8553125 4.495 -21.8553125 4.495 -20.6875 5 C-15.73809765 6.34221081 -11.08956745 6.79016116 -6 6 C-2.84777425 3.77009471 -2.84777425 3.77009471 -1 1 C-0.67 0.67 -0.34 0.34 0 0 Z " fill="#3C4EAE" transform="translate(362,354)"/>
<path d="M0 0 C2 2 2 2 2.1953125 4.3828125 C2.17210937 5.28773438 2.14890625 6.19265625 2.125 7.125 C2.10695313 8.03507812 2.08890625 8.94515625 2.0703125 9.8828125 C2.04710937 10.58148438 2.02390625 11.28015625 2 12 C-3.05002222 13.03590199 -7.87416389 13.10251672 -13 13 C-13 12.01 -13 11.02 -13 10 C-8.38 10 -3.76 10 1 10 C0.67 6.7 0.34 3.4 0 0 Z " fill="#9DA3C4" transform="translate(273,326)"/>
<path d="M0 0 C3.53571429 0.53571429 3.53571429 0.53571429 5 2 C5.1875 4.4375 5.1875 4.4375 5 7 C4.34 7.66 3.68 8.32 3 9 C1.68 9 0.36 9 -1 9 C-1.625 5.625 -1.625 5.625 -2 2 C-1.34 1.34 -0.68 0.68 0 0 Z " fill="#435AD5" transform="translate(412,329)"/>
<path d="M0 0 C0.33 0 0.66 0 1 0 C1.54298306 6.5157967 0.88377017 11.58350448 -3 17 C-6.52679099 19.35119399 -8.02879485 19.21443452 -12.1875 19.125 C-13.27417969 19.10695313 -14.36085938 19.08890625 -15.48046875 19.0703125 C-16.72763672 19.03550781 -16.72763672 19.03550781 -18 19 C-18.33 18.34 -18.66 17.68 -19 17 C-18.41992188 17.03480469 -17.83984375 17.06960938 -17.2421875 17.10546875 C-12.0692252 17.28472982 -8.36338879 17.11670628 -4 14 C-0.95467295 9.48451507 -0.45684154 5.29936184 0 0 Z " fill="#535F99" transform="translate(304,331)"/>
<path d="M0 0 C2.125 0.375 2.125 0.375 4 1 C4 3.31 4 5.62 4 8 C2.125 8.625 2.125 8.625 0 9 C-2 7 -2 7 -2.25 4.5 C-2 2 -2 2 0 0 Z " fill="#4358BE" transform="translate(290,329)"/>
<path d="M0 0 C1.32 0 2.64 0 4 0 C4.33 2.31 4.66 4.62 5 7 C2.625 7.625 2.625 7.625 0 8 C-0.66 7.34 -1.32 6.68 -2 6 C-1.44444444 1.44444444 -1.44444444 1.44444444 0 0 Z " fill="#153AF0" transform="translate(349,329)"/>
<path d="M0 0 C0.60328125 0.08378906 1.2065625 0.16757812 1.828125 0.25390625 C3.02695312 0.40666016 3.02695312 0.40666016 4.25 0.5625 C5.03890625 0.66691406 5.8278125 0.77132813 6.640625 0.87890625 C9.00532874 1.00027349 10.7511037 0.69633257 13 0 C11.125 3.875 11.125 3.875 10 5 C8.14712498 5.07226502 6.29166122 5.0838122 4.4375 5.0625 C3.42558594 5.05347656 2.41367187 5.04445313 1.37109375 5.03515625 C0.58863281 5.02355469 -0.19382812 5.01195312 -1 5 C-0.67 3.35 -0.34 1.7 0 0 Z " fill="#6879C9" transform="translate(373,346)"/>
<path d="M0 0 C0.33 0.99 0.66 1.98 1 3 C-4.75639713 8.90788127 -4.75639713 8.90788127 -9.375 9.25 C-13.11659328 8.99195908 -14.35674154 8.53752812 -17 6 C-16.43152344 6.04640625 -15.86304688 6.0928125 -15.27734375 6.140625 C-9.23485248 6.42307868 -5.94802286 5.50484953 -1 2 C-0.67 1.34 -0.34 0.68 0 0 Z " fill="#4556AE" transform="translate(274,342)"/>
<path d="M0 0 C0.45375 0.66 0.9075 1.32 1.375 2 C5.33232033 5.0151012 9.19004145 4.33045517 14 4 C13.34 5.32 12.68 6.64 12 8 C5.375 8.25 5.375 8.25 2 6 C0.8125 2.875 0.8125 2.875 0 0 Z " fill="#6577CC" transform="translate(340,343)"/>
<path d="M0 0 C0.66 0.33 1.32 0.66 2 1 C2.3125 3.25 2.3125 3.25 2 6 C-0.4375 8.1875 -0.4375 8.1875 -3 10 C-3.33 10.66 -3.66 11.32 -4 12 C-5.32 11.67 -6.64 11.34 -8 11 C-7.67 10.34 -7.34 9.68 -7 9 C-6.34 9.33 -5.68 9.66 -5 10 C-4.731875 9.278125 -4.46375 8.55625 -4.1875 7.8125 C-3.01017502 5.02409874 -1.60854116 2.55904276 0 0 Z " fill="#1D39CA" transform="translate(217,313)"/>
<path d="M0 0 C0.66 0.33 1.32 0.66 2 1 C-1.38583802 4.13107836 -3.71109462 4.33550778 -8.25 4.1875 C-9.86648437 4.14689453 -9.86648437 4.14689453 -11.515625 4.10546875 C-12.74539062 4.05326172 -12.74539062 4.05326172 -14 4 C-14 3.34 -14 2.68 -14 2 C-14.99 1.67 -15.98 1.34 -17 1 C-15.53626953 1.01740234 -15.53626953 1.01740234 -14.04296875 1.03515625 C-12.77066406 1.04417969 -11.49835937 1.05320313 -10.1875 1.0625 C-8.29064453 1.07990234 -8.29064453 1.07990234 -6.35546875 1.09765625 C-3.00394763 1.16159116 -3.00394763 1.16159116 0 0 Z " fill="#5871F6" transform="translate(66,252)"/>
<path d="M0 0 C0.33 0 0.66 0 1 0 C1 1.65 1 3.3 1 5 C-2.3 5 -5.6 5 -9 5 C-9.33 4.01 -9.66 3.02 -10 2 C-6.7 2 -3.4 2 0 2 C0 1.34 0 0.68 0 0 Z " fill="#3D51BA" transform="translate(84,346)"/>
<path d="M0 0 C2.55694972 3.83542457 2.04045639 5.65902533 1.625 10.1875 C1.51414062 11.45980469 1.40328125 12.73210937 1.2890625 14.04296875 C1.19367188 15.01878906 1.09828125 15.99460937 1 17 C0.01 17 -0.98 17 -2 17 C-1.76990234 16.21882813 -1.76990234 16.21882813 -1.53515625 15.421875 C-0.86017489 12.36721485 -0.65588882 9.36984029 -0.4375 6.25 C-0.35371094 5.07953125 -0.26992188 3.9090625 -0.18359375 2.703125 C-0.12300781 1.81109375 -0.06242187 0.9190625 0 0 Z " fill="#4A5AAD" transform="translate(426,327)"/>
<path d="M0 0 C0.66 0.33 1.32 0.66 2 1 C0.92492371 2.29854721 -0.16043736 3.58858361 -1.25 4.875 C-1.85328125 5.59429687 -2.4565625 6.31359375 -3.078125 7.0546875 C-4.97087634 8.97052118 -6.53657727 9.96449045 -9 11 C-7.59155282 7.78475695 -5.89655214 5.67816132 -3.375 3.25 C-2.74335937 2.63640625 -2.11171875 2.0228125 -1.4609375 1.390625 C-0.73777344 0.70226562 -0.73777344 0.70226562 0 0 Z " fill="#D3DAFC" transform="translate(112,170)"/>
<path d="M0 0 C0.94875 0.04125 1.8975 0.0825 2.875 0.125 C2.545 0.785 2.215 1.445 1.875 2.125 C-1.1875 2.75 -1.1875 2.75 -4.125 3.125 C-4.455 5.435 -4.785 7.745 -5.125 10.125 C-5.455 10.125 -5.785 10.125 -6.125 10.125 C-5.16515544 0.20660622 -5.16515544 0.20660622 0 0 Z " fill="#4D5999" transform="translate(206.125,320.875)"/>
<path d="M0 0 C1.45606519 4.52092968 0.27032841 7.51648796 -1 12 C-1.33 12 -1.66 12 -2 12 C-2.33 8.7 -2.66 5.4 -3 2 C-2.01 1.34 -1.02 0.68 0 0 Z " fill="#3A57F5" transform="translate(199,191)"/>
<path d="M0 0 C0.33 0 0.66 0 1 0 C1.19392201 5.52677733 0.7479503 9.75614911 -1 15 C-1.33 15 -1.66 15 -2 15 C-2.19392201 9.47322267 -1.7479503 5.24385089 0 0 Z " fill="#3C4DA0" transform="translate(107,323)"/>
<path d="M0 0 C0 0.33 0 0.66 0 1 C-1.65 1 -3.3 1 -5 1 C-5.2475 1.61875 -5.495 2.2375 -5.75 2.875 C-7.20628639 5.35068687 -8.37812506 5.95125002 -11 7 C-8.87296567 0.78251503 -6.45381515 -0.28683623 0 0 Z " fill="#C2CCFB" transform="translate(351,318)"/>
<path d="M0 0 C0.66 0.33 1.32 0.66 2 1 C2.37010337 4.3309303 2.27461204 5.62731223 0.25 8.375 C-2 10 -2 10 -4.25 9.75 C-5.11625 9.37875 -5.11625 9.37875 -6 9 C-5.38125 8.814375 -4.7625 8.62875 -4.125 8.4375 C-0.94397134 6.28562767 -0.80548053 3.62466237 0 0 Z " fill="#435197" transform="translate(122,309)"/>
<path d="M0 0 C0.66 0 1.32 0 2 0 C2.08131463 1.43655854 2.13933559 2.8744483 2.1875 4.3125 C2.23970703 5.51326172 2.23970703 5.51326172 2.29296875 6.73828125 C2 9 2 9 -1 12 C-0.67 8.04 -0.34 4.08 0 0 Z " fill="#4C68F6" transform="translate(251,218)"/>
<path d="M0 0 C0.75 1.6875 0.75 1.6875 1 4 C-0.9375 6.75 -0.9375 6.75 -3 9 C-4.32 8.67 -5.64 8.34 -7 8 C-5.47005208 6.79557292 -3.94010417 5.59114583 -2.41015625 4.38671875 C-0.72844923 2.94316909 -0.72844923 2.94316909 0 0 Z " fill="#445089" transform="translate(394,352)"/>
<path d="M0 0 C0.66 0 1.32 0 2 0 C2 1.98 2 3.96 2 6 C0.68 6 -0.64 6 -2 6 C-1.125 1.125 -1.125 1.125 0 0 Z " fill="#1536E6" transform="translate(382,330)"/>
<path d="M0 0 C0.66 0.33 1.32 0.66 2 1 C1.04882866 2.1725131 0.08882991 3.33787015 -0.875 4.5 C-1.40867187 5.1496875 -1.94234375 5.799375 -2.4921875 6.46875 C-2.98976562 6.9740625 -3.48734375 7.479375 -4 8 C-4.66 8 -5.32 8 -6 8 C-4.55746343 4.63408134 -2.66735273 2.48952921 0 0 Z " fill="#BCC7FB" transform="translate(51,172)"/>
<path d="M0 0 C0 0.99 0 1.98 0 3 C-4.75 4.125 -4.75 4.125 -7 3 C-7 2.34 -7 1.68 -7 1 C-3.535 0.505 -3.535 0.505 0 0 Z " fill="#2F4BE0" transform="translate(276,337)"/>
<path d="M0 0 C1.32 0 2.64 0 4 0 C3 3 3 3 1 4 C0.34 4.99 -0.32 5.98 -1 7 C-1.625 5.1875 -1.625 5.1875 -2 3 C-1.34 2.01 -0.68 1.02 0 0 Z " fill="#5B68A7" transform="translate(349,329)"/>
<path d="M0 0 C1.65 0 3.3 0 5 0 C5 1.32 5 2.64 5 4 C3.35 4 1.7 4 0 4 C0 2.68 0 1.36 0 0 Z " fill="#929BCA" transform="translate(260,327)"/>
<path d="M0 0 C0.94875 0.04125 1.8975 0.0825 2.875 0.125 C2.2975 0.3725 1.72 0.62 1.125 0.875 C-1.25949889 2.06490475 -1.25949889 2.06490475 -3.25 4.25 C-3.86875 4.86875 -4.4875 5.4875 -5.125 6.125 C-5.785 6.125 -6.445 6.125 -7.125 6.125 C-4.34782609 0.17391304 -4.34782609 0.17391304 0 0 Z " fill="#4764F6" transform="translate(66.125,191.875)"/>
<path d="M0 0 C1 3 1 3 -0.0625 5.1875 C-2 7 -2 7 -5.1875 7.25 C-6.115625 7.1675 -7.04375 7.085 -8 7 C-7.13375 6.38125 -7.13375 6.38125 -6.25 5.75 C-3.97483401 3.98042645 -2.00004601 2.07147622 0 0 Z " fill="#3B4994" transform="translate(274,342)"/>
<path d="M0 0 C0.66 0 1.32 0 2 0 C2 1.98 2 3.96 2 6 C0.68 5.67 -0.64 5.34 -2 5 C-1.34 3.35 -0.68 1.7 0 0 Z " fill="#1536E8" transform="translate(291,330)"/>
<path d="M0 0 C0.66 0.33 1.32 0.66 2 1 C1.21654285 2.17219543 0.42297164 3.33763668 -0.375 4.5 C-0.81585938 5.1496875 -1.25671875 5.799375 -1.7109375 6.46875 C-2.13632812 6.9740625 -2.56171875 7.479375 -3 8 C-3.66 8 -4.32 8 -5 8 C-3.8141763 4.62496331 -2.72426311 2.35277269 0 0 Z " fill="#C5CEFB" transform="translate(375,319)"/>
<path d="M0 0 C0.33 0.66 0.66 1.32 1 2 C0.06553465 4.03144641 -0.93224776 6.03533587 -2 8 C-3.32 7.67 -4.64 7.34 -6 7 C-5.67 6.34 -5.34 5.68 -5 5 C-4.34 5.33 -3.68 5.66 -3 6 C-2.690625 5.195625 -2.38125 4.39125 -2.0625 3.5625 C-1 1 -1 1 0 0 Z " fill="#4B589A" transform="translate(215,317)"/>
<path d="M0 0 C6.93 0.495 6.93 0.495 14 1 C14 1.33 14 1.66 14 2 C12.23186888 2.24915939 10.46025018 2.47366632 8.6875 2.6875 C7.70136719 2.81511719 6.71523437 2.94273437 5.69921875 3.07421875 C3 3 3 3 0 0 Z " fill="#687FF7" transform="translate(107,253)"/>
<path d="M0 0 C0.33 1.32 0.66 2.64 1 4 C-1.70879335 5.35439668 -4.00933268 5.06501451 -7 5 C-6.01 4.34 -5.02 3.68 -4 3 C-2.66209359 2.00612666 -1.32781878 1.0073108 0 0 Z " fill="#4B5793" transform="translate(423,344)"/>
<path d="M0 0 C0.99 0 1.98 0 3 0 C3 0.99 3 1.98 3 3 C2.34 3 1.68 3 1 3 C1 5.64 1 8.28 1 11 C0.67 11 0.34 11 0 11 C0 7.37 0 3.74 0 0 Z " fill="#C4CDFB" transform="translate(250,215)"/>
</svg>
