<svg width="512" height="512" viewBox="0 0 512 512" fill="none" xmlns="http://www.w3.org/2000/svg">
  <defs>
    <linearGradient id="c-bg" x1="104" y1="92" x2="412" y2="432" gradientUnits="userSpaceOnUse">
      <stop stop-color="#1F7EDB"/>
      <stop offset="1" stop-color="#0F5FB7"/>
    </linearGradient>
    <linearGradient id="c-gloss" x1="106" y1="88" x2="400" y2="330" gradientUnits="userSpaceOnUse">
      <stop stop-color="white" stop-opacity="0.34"/>
      <stop offset="0.45" stop-color="white" stop-opacity="0.07"/>
      <stop offset="1" stop-color="white" stop-opacity="0"/>
    </linearGradient>
    <linearGradient id="c-depth" x1="256" y1="164" x2="256" y2="418" gradientUnits="userSpaceOnUse">
      <stop stop-color="#0F5FB7" stop-opacity="0"/>
      <stop offset="1" stop-color="#0B4A93" stop-opacity="0.42"/>
    </linearGradient>
    <linearGradient id="c-text" x1="196" y1="203" x2="316" y2="333" gradientUnits="userSpaceOnUse">
      <stop stop-color="#FFFFFF"/>
      <stop offset="1" stop-color="#D8ECFF"/>
    </linearGradient>
    <clipPath id="c-clip">
      <rect x="86" y="78" width="340" height="340" rx="88"/>
    </clipPath>
    <filter id="c-shadow" x="58" y="56" width="400" height="420" filterUnits="userSpaceOnUse" color-interpolation-filters="sRGB">
      <feDropShadow dx="0" dy="20" stdDeviation="24" flood-color="#0F5FB7" flood-opacity="0.20"/>
    </filter>
  </defs>
  <rect width="512" height="512" rx="116" fill="#F7F9FC"/>
  <g filter="url(#c-shadow)">
    <rect x="86" y="78" width="340" height="340" rx="88" fill="url(#c-bg)"/>
    <rect x="86" y="78" width="340" height="340" rx="88" fill="url(#c-depth)" opacity="0.64"/>
    <rect x="100" y="92" width="312" height="312" rx="76" stroke="white" stroke-opacity="0.22" stroke-width="3"/>
    <path d="M86 78H426V218C372 193 316 181 256 181C197 181 143 193 86 218V78Z" fill="url(#c-gloss)"/>
    <g clip-path="url(#c-clip)">
      <text x="256" y="333" text-anchor="middle" font-family="Inter, Arial, sans-serif" font-size="186" font-weight="850" letter-spacing="-19" fill="#0B4A93" opacity="0.28">SQ</text>
      <text x="256" y="321" text-anchor="middle" font-family="Inter, Arial, sans-serif" font-size="186" font-weight="850" letter-spacing="-19" fill="url(#c-text)">SQ</text>
      <path d="M132 372C181 391 224 398 256 398C295 398 337 391 380 372" stroke="white" stroke-opacity="0.18" stroke-width="11" stroke-linecap="round"/>
    </g>
  </g>
</svg>
